# xmcd CD database file
#
# Track frame offsets:
#	150
#	6234
#	25147
#	50180
#	73158
#	91959
#	112084
#	129200
#	150001
#	169511
#	185377
#	199874
#
# Disc length: 2812 seconds
#
# Revision: 7
# Processed by: cddbd v1.5.2PL0 Copyright (c) Steve Scherf et al.
# Submitted via: CDex 1.51
#
DISCID=970afa0c
DTITLE=Juan Luis Guerra and 4.40 - Areito
DYEAR=1992
DGENRE=Latin
TTITLE0=Areito
TTITLE1=El Costo De la Vida
TTITLE2=Senales De Humo
TTITLE3=Ayer
TTITLE4=Frío Frío
TTITLE5=Rompiendo Fuentes
TTITLE6=Mal De Amor
TTITLE7=Si Saliera Petroleo
TTITLE8=Coronita Da Flotres
TTITLE9=Cuando Te Beso
TTITLE10=Cuando Te Beso (bonus)
TTITLE11=Naboria/Daca Mayanimacana
EXTD=0 YEAR: 1992
EXTT0=
EXTT1=
EXTT2=
EXTT3=
EXTT4=
EXTT5=
EXTT6=
EXTT7=
EXTT8=
EXTT9=
EXTT10=
EXTT11=
PLAYORDER=
